<?xml version="1.0" standalone="no"?>
<!DOCTYPE svg PUBLIC "-//W3C//DTD SVG 20010904//EN"
 "http://www.w3.org/TR/2001/REC-SVG-20010904/DTD/svg10.dtd">
<svg version="1.0" xmlns="http://www.w3.org/2000/svg"
 width="1080.000000pt" height="1080.000000pt" viewBox="0 0 1080.000000 1080.000000"
 preserveAspectRatio="xMidYMid meet">

<g transform="translate(0.000000,1080.000000) scale(0.100000,-0.100000)"
fill="#000000" stroke="none">
<path d="M4710 9569 c-139 -24 -201 -53 -279 -130 -98 -98 -135 -218 -111
-364 22 -134 108 -247 235 -306 63 -30 68 -31 192 -27 121 3 132 5 199 36 41
19 90 52 114 77 l42 42 -17 89 c-9 49 -20 112 -25 141 -10 64 -15 73 -43 73
-53 -1 -53 -6 -7 -234 12 -55 6 -66 -50 -100 -70 -44 -131 -60 -220 -61 -69 0
-94 5 -135 24 -105 49 -169 122 -199 223 -34 119 -6 243 76 338 18 20 75 60
86 60 5 0 15 6 21 14 17 21 145 39 220 32 35 -3 81 -14 101 -25 l38 -20 23 25
24 25 -25 19 c-14 11 -41 22 -60 26 -19 4 -39 10 -45 14 -17 12 -107 18 -155
9z"/>
<path d="M5515 9411 c-49 -12 -78 -31 -117 -74 l-37 -42 -1 58 0 57 -35 0 -35
0 0 -300 c0 -293 0 -300 20 -301 11 -1 26 -2 33 -3 9 -1 14 47 18 194 7 201
13 229 60 286 19 23 86 54 132 62 38 7 42 10 42 37 0 25 -4 30 -25 32 -14 1
-38 -2 -55 -6z"/>
<path d="M5830 9362 c-47 -15 -55 -22 -58 -45 -4 -35 18 -44 59 -23 35 17 194
23 203 7 3 -5 17 -12 32 -15 57 -15 95 -99 80 -179 l-6 -34 -53 4 c-28 2 -79
11 -113 19 -129 30 -221 8 -269 -64 -34 -52 -36 -122 -5 -175 45 -77 200 -128
293 -98 20 7 52 23 71 36 l35 24 7 -49 c6 -46 9 -50 34 -50 27 0 28 2 34 70 4
38 11 84 17 102 16 56 32 256 24 313 -12 102 -102 162 -255 171 -54 3 -90 -1
-130 -14z m191 -328 c52 -9 97 -19 101 -23 15 -13 -9 -111 -33 -137 -65 -70
-175 -85 -264 -36 -59 32 -80 77 -64 136 21 77 79 91 260 60z"/>
<path d="M6519 9223 c-5 -16 -17 -48 -25 -73 -9 -25 -20 -54 -25 -65 -17 -40
-81 -210 -86 -230 -2 -11 -9 -29 -13 -40 -5 -11 -21 -51 -35 -90 -15 -38 -33
-84 -41 -102 -8 -17 -14 -39 -14 -50 0 -10 -7 -27 -15 -37 -25 -32 -19 -75 11
-86 14 -6 27 -10 28 -10 4 0 29 61 56 135 12 33 29 75 36 93 8 18 14 39 14 46
0 8 6 19 14 25 12 10 16 6 25 -22 17 -50 83 -114 148 -144 46 -22 73 -27 135
-28 49 0 82 5 90 13 6 6 20 12 30 12 22 0 120 95 142 139 21 40 46 132 46 169
0 63 -50 174 -96 213 -21 18 -60 39 -117 65 -41 18 -159 23 -179 7 -15 -12
-78 -34 -78 -28 0 2 7 25 16 51 17 51 11 64 -34 64 -16 0 -26 -8 -33 -27z
m286 -131 c54 -22 74 -39 115 -90 32 -41 34 -48 35 -120 0 -60 -5 -87 -22
-122 -34 -68 -88 -116 -155 -135 -52 -15 -61 -15 -120 0 -155 40 -222 194
-148 341 16 33 41 71 56 85 59 55 163 73 239 41z"/>
<path d="M7428 9097 c-16 -23 -44 -66 -63 -96 -19 -29 -35 -55 -35 -57 0 -2
-16 -26 -35 -53 -19 -26 -35 -51 -35 -54 0 -3 -23 -41 -51 -84 -28 -43 -66
-100 -84 -128 -18 -27 -56 -86 -84 -130 l-51 -80 22 -17 c13 -10 28 -18 35
-18 11 0 143 191 143 206 0 12 93 126 116 140 40 27 102 36 161 24 44 -10 63
-21 108 -65 55 -53 55 -53 55 -115 0 -65 -7 -81 -120 -255 -88 -135 -104 -167
-89 -176 35 -24 53 -31 56 -23 2 5 31 52 66 105 34 53 77 120 96 149 42 64 80
156 81 190 1 81 -72 183 -163 228 -40 20 -59 23 -132 20 -47 -2 -85 -2 -85 0
0 8 27 52 85 142 104 160 103 157 80 175 -32 23 -48 17 -77 -28z"/>
<path d="M3100 8682 c-59 -23 -163 -121 -185 -175 -26 -63 -23 -194 5 -253 28
-57 111 -139 166 -164 57 -26 176 -27 230 -2 65 29 129 78 158 122 53 81 59
243 10 327 -30 52 -104 118 -162 143 -55 25 -158 26 -222 2z m185 -68 c100
-48 154 -124 163 -230 8 -103 -37 -173 -149 -230 -27 -13 -65 -24 -84 -24 -48
0 -133 41 -171 82 -56 60 -76 106 -76 178 -1 102 41 168 142 223 59 33 107 33
175 1z"/>
<path d="M3964 8602 c-6 -4 -16 -17 -23 -30 -25 -48 38 -98 84 -68 32 21 35
80 6 96 -23 12 -51 13 -67 2z"/>
<path d="M7905 8359 c-84 -24 -177 -109 -218 -199 -31 -68 -28 -170 6 -236 59
-115 129 -165 245 -172 l74 -5 -104 -106 c-137 -140 -135 -137 -113 -161 10
-11 26 -20 35 -20 16 0 590 573 590 589 0 4 -10 17 -23 29 l-23 22 -34 -35
c-19 -19 -38 -35 -42 -35 -4 0 -8 20 -8 45 0 107 -74 214 -185 267 -63 29
-137 36 -200 17z m171 -80 c170 -74 206 -268 73 -395 -92 -88 -185 -106 -275
-54 -60 34 -104 86 -129 153 -17 46 -17 50 0 107 33 109 148 207 246 209 20 1
58 -9 85 -20z"/>
<path d="M2577 8262 c-23 -25 -22 -28 21 -67 35 -33 35 -35 14 -35 -13 0 -49
-7 -80 -16 -142 -41 -232 -160 -232 -306 0 -140 80 -240 231 -287 86 -27 191
5 277 84 64 58 86 105 92 200 l5 80 57 -53 c58 -55 86 -100 95 -155 14 -93
-126 -253 -252 -288 -31 -9 -35 -13 -35 -44 0 -45 20 -46 104 -5 142 68 256
215 256 331 0 98 -35 148 -217 311 -69 62 -165 148 -212 190 -47 43 -91 78
-97 78 -6 0 -18 -8 -27 -18z m129 -183 c55 -25 82 -49 115 -104 19 -32 24 -53
24 -110 -1 -83 -20 -121 -91 -184 -58 -51 -101 -65 -176 -58 -48 4 -68 12
-102 38 -58 47 -79 75 -97 132 -19 60 -11 108 28 177 31 55 53 74 118 106 62
30 118 31 181 3z"/>
<path d="M8659 7877 c-68 -52 -222 -166 -341 -256 -120 -89 -218 -165 -218
-170 0 -4 11 -18 25 -31 25 -23 25 -23 47 -4 12 10 28 24 34 29 7 6 46 35 88
65 42 30 132 96 199 146 67 49 173 128 235 173 61 46 112 88 112 92 0 11 -37
49 -48 49 -5 0 -64 -42 -133 -93z"/>
<path d="M2045 7526 c-98 -46 -156 -141 -157 -258 -1 -41 5 -84 11 -97 12 -21
11 -22 -11 -16 -12 4 -30 14 -39 21 -23 21 -49 17 -58 -8 -14 -38 -5 -44 311
-218 15 -8 61 -34 103 -58 88 -50 120 -52 120 -8 0 29 -25 49 -125 99 -148 74
-234 148 -249 216 -12 55 1 131 28 169 75 105 164 125 271 62 46 -27 152 -86
229 -127 24 -12 50 -28 58 -35 15 -12 18 -9 43 33 12 20 -3 34 -90 83 -36 20
-72 41 -80 46 -8 6 -26 16 -40 22 -14 7 -43 23 -64 36 -50 31 -141 62 -180 62
-17 0 -53 -11 -81 -24z"/>
<path d="M8430 7053 c-21 -8 -30 -24 -30 -54 0 -32 21 -51 55 -51 14 0 32 5
40 12 16 13 20 57 7 77 -9 14 -52 24 -72 16z"/>
<path d="M9320 6860 c-12 -7 -12 -18 -1 -71 7 -33 16 -69 21 -78 4 -9 14 -42
21 -74 11 -53 11 -58 -7 -72 -10 -8 -29 -15 -41 -15 -13 0 -51 -9 -85 -19 -35
-11 -88 -27 -118 -35 -30 -8 -89 -25 -130 -36 -41 -12 -100 -28 -130 -37 -30
-8 -73 -21 -95 -28 -22 -7 -55 -16 -72 -20 -37 -7 -37 -7 -21 -52 10 -28 16
-33 33 -28 11 3 43 12 70 20 28 7 82 23 120 34 39 12 95 28 125 35 55 14 128
35 185 54 17 6 50 15 75 22 25 6 63 15 85 21 33 9 41 7 52 -7 7 -10 13 -26 13
-36 0 -17 40 -162 55 -201 6 -13 16 -17 39 -15 27 3 31 6 28 28 -2 14 -8 29
-13 34 -5 6 -9 20 -9 33 0 12 -9 46 -20 75 -11 29 -20 61 -20 70 0 10 -7 39
-15 65 -21 68 -40 134 -72 246 -27 98 -37 110 -73 87z"/>
<path d="M1728 6811 c-95 -31 -168 -166 -168 -312 0 -92 12 -121 48 -117 29 3
29 0 16 100 -4 32 0 64 11 100 29 88 54 125 97 143 45 18 69 19 122 4 36 -10
38 -13 33 -42 -3 -18 -19 -72 -36 -120 -24 -67 -31 -105 -31 -160 0 -82 8 -99
69 -141 78 -55 181 -31 238 55 47 71 65 193 39 260 -21 52 -21 51 18 44 30 -6
37 -3 52 20 17 26 17 28 0 41 -10 7 -44 19 -75 25 -31 7 -60 15 -66 19 -5 4
-44 17 -85 30 -41 12 -90 29 -108 36 -42 18 -139 26 -174 15z m325 -149 c32
-19 62 -70 72 -124 18 -93 -63 -228 -136 -228 -45 0 -97 33 -105 66 -8 33 2
152 15 168 5 6 14 31 21 55 24 91 26 94 68 86 20 -4 50 -14 65 -23z"/>
<path d="M1245 6212 c-25 -5 -35 -20 -35 -52 0 -33 17 -50 51 -50 35 0 51 21
47 61 -3 34 -26 49 -63 41z"/>
<path d="M1458 6146 c-1 -14 -2 -34 -2 -43 -1 -14 10 -19 44 -24 100 -14 257
-41 286 -50 17 -5 62 -13 100 -19 97 -13 244 -45 276 -60 52 -25 61 -118 17
-174 -19 -24 -19 -24 7 -41 25 -16 27 -16 46 2 30 31 49 117 38 175 -12 61
-13 63 -62 99 -27 19 -53 29 -76 29 -19 0 -55 7 -81 15 -25 8 -102 24 -171 35
-69 12 -156 27 -195 35 -38 7 -98 18 -133 25 -35 6 -69 13 -77 17 -11 3 -15
-3 -17 -21z"/>
<path d="M8981 6021 c-29 -11 -60 -26 -70 -33 -48 -36 -86 -78 -109 -123 -23
-43 -26 -63 -26 -146 -1 -74 3 -101 17 -122 9 -14 17 -31 17 -38 0 -18 60 -89
75 -89 8 0 19 9 25 21 9 17 5 29 -27 77 -34 51 -38 65 -41 133 -3 66 -1 83 21
126 14 27 42 64 61 81 39 34 103 52 116 33 4 -7 10 -62 14 -122 3 -59 11 -120
16 -134 6 -15 10 -65 10 -113 0 -122 4 -132 49 -132 84 0 232 107 247 179 3
14 10 36 15 49 12 31 11 98 -2 141 -46 147 -135 219 -278 227 -59 4 -88 0
-130 -15z m205 -72 c146 -37 196 -255 83 -368 -37 -36 -111 -72 -124 -59 -3 2
-7 27 -10 54 -3 27 -10 78 -15 114 -5 36 -12 111 -14 168 -6 116 -8 113 80 91z"/>
<path d="M1510 5850 c-8 -5 -24 -10 -35 -10 -59 0 -183 -96 -225 -173 -52 -98
-60 -141 -66 -352 -3 -110 -2 -205 3 -211 6 -8 127 -13 413 -15 l405 -4 0 205
c-1 273 -13 330 -93 429 -47 57 -123 105 -200 125 -70 18 -179 21 -202 6z
m239 -102 c62 -30 127 -98 159 -166 25 -54 27 -67 30 -240 l4 -182 -344 2
-343 3 0 150 c0 224 27 307 128 388 81 66 123 78 241 72 54 -3 93 -12 125 -27z"/>
<path d="M8800 5279 c-8 -17 -9 -34 -4 -39 10 -10 233 -40 302 -41 63 0 150
-43 179 -88 50 -74 54 -167 11 -244 -42 -74 -62 -82 -202 -80 -67 1 -162 9
-211 18 -133 23 -135 22 -135 -24 l0 -40 58 -5 c31 -4 111 -13 177 -21 204
-25 253 -19 323 44 59 53 82 109 82 204 0 81 -18 134 -62 181 l-19 21 55 3 56
3 0 34 c0 40 8 38 -215 60 -148 15 -275 29 -346 40 -33 4 -38 2 -49 -26z"/>
<path d="M2006 4628 c-21 -30 -20 -54 4 -78 39 -39 100 -14 100 42 0 53 -74
79 -104 36z"/>
<path d="M8725 4588 c-41 -48 -70 -103 -87 -163 -16 -60 -22 -165 -9 -178 6
-6 11 -19 11 -29 0 -27 58 -77 103 -89 33 -9 47 -8 78 6 52 24 76 54 143 173
65 116 89 137 143 129 59 -10 77 -35 76 -109 -1 -72 -26 -139 -75 -200 -24
-31 -29 -44 -21 -57 28 -44 72 -9 124 99 43 89 51 198 20 262 -12 23 -33 51
-47 62 -29 20 -99 32 -136 23 -39 -10 -90 -70 -138 -163 -60 -117 -87 -144
-138 -144 -32 0 -45 6 -61 27 -12 14 -24 37 -27 49 -13 53 43 209 92 255 32
30 45 60 32 77 -19 22 -46 12 -83 -30z"/>
<path d="M2043 4131 c-17 -11 -37 -29 -42 -40 -18 -32 -13 -161 9 -242 26
-100 25 -131 -6 -168 -77 -92 -207 23 -221 197 -3 39 -9 72 -12 72 -3 0 -16 3
-27 6 -29 8 -34 -10 -24 -99 10 -83 40 -153 91 -212 44 -49 78 -65 144 -65 51
0 59 3 96 38 l41 38 0 80 c-1 47 -8 100 -17 129 -10 27 -18 77 -19 113 -1 56
2 66 23 83 30 25 85 24 122 -1 48 -35 91 -140 98 -240 l6 -85 29 0 c23 0 31 6
36 25 7 27 -13 166 -28 197 -47 95 -62 119 -95 151 -34 33 -43 37 -105 40 -54
2 -73 -1 -99 -17z"/>
<path d="M8601 4030 c-97 -35 -144 -80 -194 -180 -27 -56 -32 -76 -32 -142 0
-85 10 -104 48 -94 24 6 25 8 20 65 -10 112 64 239 162 277 46 17 147 16 165
-2 6 -6 -34 -97 -105 -238 -63 -126 -112 -232 -110 -236 3 -5 25 -16 50 -25
60 -23 206 -17 250 10 145 90 199 258 130 398 -35 73 -97 128 -177 157 -87 32
-142 35 -207 10z m271 -132 c40 -28 78 -110 78 -168 0 -46 -28 -120 -58 -154
-42 -47 -95 -70 -162 -70 -111 0 -111 -7 -4 207 104 209 103 207 111 207 2 0
19 -10 35 -22z"/>
<path d="M2556 3704 c-45 -23 -204 -119 -296 -179 -73 -48 -202 -125 -208
-125 -4 0 -25 -15 -46 -33 l-39 -33 18 -27 c9 -15 20 -27 24 -27 3 0 44 25 91
55 47 29 123 77 170 105 47 28 112 69 145 90 33 22 66 43 74 47 8 3 39 21 69
40 96 57 148 42 197 -60 20 -42 48 -58 68 -38 14 14 -17 95 -56 144 -56 72
-125 85 -211 41z"/>
<path d="M8191 3484 l-21 -27 32 -23 c18 -13 64 -45 101 -71 135 -95 186 -143
212 -193 32 -63 32 -103 -1 -169 -25 -50 -26 -53 -9 -71 29 -32 44 -24 71 35
25 59 30 109 15 162 l-10 33 29 -15 c16 -8 32 -19 35 -25 11 -17 44 -11 55 11
14 25 0 43 -63 86 -23 15 -72 50 -109 78 -37 27 -95 70 -130 94 -35 25 -86 62
-114 83 -28 21 -56 38 -62 38 -6 0 -20 -12 -31 -26z"/>
<path d="M2557 3446 c-17 -25 -13 -36 11 -36 21 0 57 -42 71 -81 18 -53 -1
-90 -76 -151 -36 -29 -75 -59 -87 -67 -11 -8 -46 -36 -76 -61 -30 -26 -66 -53
-79 -60 -27 -14 -18 -21 -104 84 -37 45 -38 46 -62 30 l-25 -16 43 -60 c23
-32 48 -67 55 -78 14 -20 13 -22 -58 -78 -22 -17 -23 -23 -12 -46 15 -34 39
-32 82 4 43 37 52 37 83 0 28 -32 64 -40 73 -15 4 9 -6 34 -21 56 -17 23 -24
43 -19 48 5 4 38 31 74 58 172 131 236 182 252 200 30 33 50 92 42 127 -10 48
-64 122 -105 145 -45 26 -43 26 -62 -3z"/>
<path d="M1778 3249 c-22 -13 -24 -62 -2 -83 22 -23 71 -20 84 3 31 59 -25
114 -82 80z"/>
<path d="M7922 3147 c-12 -13 -22 -28 -22 -34 0 -6 44 -51 98 -99 53 -49 131
-122 173 -162 42 -41 86 -80 98 -88 12 -8 21 -20 21 -25 0 -6 -25 -39 -55 -72
-30 -34 -55 -67 -55 -74 0 -7 10 -17 21 -24 19 -10 28 -5 79 50 31 34 64 61
73 61 18 0 69 -46 86 -78 27 -51 -3 -125 -66 -159 -36 -19 -40 -30 -20 -57 13
-17 15 -17 55 3 46 23 94 83 112 137 17 51 -9 119 -65 174 -25 24 -45 48 -45
53 0 4 13 22 30 40 36 38 36 39 10 62 -20 18 -21 18 -60 -20 l-40 -39 -37 35
c-21 20 -56 51 -77 70 -38 32 -165 147 -176 159 -3 3 -30 29 -61 58 l-55 52
-22 -23z"/>
<path d="M2797 3063 c-13 -12 -7 -51 9 -57 9 -3 30 -6 47 -6 41 0 106 -32 145
-73 101 -104 95 -237 -16 -345 -46 -45 -126 -82 -176 -82 -37 0 -145 61 -175
98 -30 38 -61 111 -61 144 0 17 -28 38 -49 38 -18 0 -12 -95 9 -145 25 -59
115 -149 177 -177 67 -30 170 -29 237 2 72 33 139 100 171 172 24 54 27 70 23
137 -6 90 -29 143 -94 208 -56 55 -134 93 -195 93 -25 0 -49 -3 -52 -7z"/>
<path d="M7660 2879 c-10 -17 -6 -27 24 -62 53 -64 82 -97 145 -162 52 -54
107 -116 179 -200 93 -108 207 -225 221 -225 21 0 41 19 41 38 0 13 -105 136
-229 267 -37 39 -96 104 -131 145 -36 41 -90 101 -120 133 -30 32 -59 65 -63
73 -12 21 -55 17 -67 -7z"/>
<path d="M3287 2602 c-158 -239 -178 -274 -189 -325 -15 -75 1 -124 61 -186
71 -73 177 -121 269 -121 41 0 42 1 42 34 l0 33 -63 5 c-75 6 -136 35 -194 91
-39 37 -43 46 -43 89 0 46 27 119 49 132 11 7 56 -18 149 -81 34 -24 68 -43
75 -43 6 0 21 -7 31 -15 26 -20 119 -19 156 0 103 53 107 216 8 300 -59 50
-134 77 -205 73 -59 -3 -62 -2 -57 17 4 11 13 27 20 36 12 13 10 18 -15 37
l-29 21 -65 -97z m256 -97 c98 -56 125 -144 63 -209 -52 -56 -87 -50 -238 41
-29 18 -66 43 -83 56 l-29 25 28 40 c29 42 57 66 91 75 41 12 121 -2 168 -28z"/>
<path d="M7366 2640 c-106 -45 -183 -124 -207 -214 -16 -59 -6 -163 21 -216
29 -60 104 -135 160 -162 62 -31 176 -31 240 0 111 52 177 131 200 240 14 61
-6 155 -44 212 -30 46 -91 105 -125 120 -14 7 -35 17 -46 23 -39 20 -146 19
-199 -3z m172 -69 c52 -15 107 -66 138 -127 36 -72 39 -172 6 -225 -68 -110
-194 -157 -295 -109 -61 28 -92 57 -132 124 -45 77 -49 149 -9 220 29 53 85
103 129 115 41 12 123 13 163 2z"/>
<path d="M3880 2302 c-28 -14 -34 -22 -32 -42 2 -14 5 -26 7 -28 1 -1 24 2 50
8 110 25 239 -33 288 -129 28 -56 37 -140 18 -170 -11 -17 -18 -15 -156 44
-116 49 -326 135 -332 135 -1 0 -9 -16 -18 -36 -72 -172 36 -364 227 -404 141
-30 279 51 337 198 20 51 23 73 19 139 -9 144 -89 238 -243 285 -75 23 -120
23 -165 0z m100 -347 c74 -31 150 -61 168 -66 38 -12 38 -12 12 -54 -44 -72
-148 -110 -236 -86 -98 26 -174 122 -174 219 0 26 5 53 11 59 13 13 24 10 219
-72z"/>
<path d="M6785 2300 c-15 -17 -18 -49 -23 -282 l-5 -262 -70 74 c-39 41 -119
132 -180 203 -60 70 -112 127 -114 127 -3 0 -20 -7 -39 -16 l-34 -16 0 -324
c0 -223 3 -324 11 -324 6 0 19 5 30 10 18 10 19 24 19 278 0 147 4 273 8 280
9 13 29 -7 140 -139 167 -199 226 -259 252 -259 50 0 51 9 50 282 -1 306 -2
288 9 288 5 0 50 -48 100 -107 215 -257 263 -313 270 -313 3 0 17 9 30 19 l25
19 -90 102 c-49 56 -121 139 -160 185 -174 205 -190 218 -229 175z"/>
<path d="M4440 2121 c0 -5 27 -66 59 -135 33 -69 61 -133 63 -142 2 -12 -7
-20 -28 -26 -97 -25 -158 -88 -188 -190 -21 -73 -20 -102 4 -167 43 -119 140
-176 355 -212 33 -5 92 -15 130 -23 41 -8 75 -9 81 -4 7 5 14 25 17 46 3 20
13 73 21 117 43 227 58 306 67 365 5 36 16 94 24 130 29 135 27 150 -22 150
-31 0 -40 -23 -57 -138 -7 -52 -18 -98 -23 -103 -6 -6 -29 -6 -64 0 -127 22
-185 32 -205 36 -15 3 -31 25 -51 67 -118 252 -110 238 -148 238 -19 0 -35 -4
-35 -9z m331 -381 c57 -10 115 -20 129 -22 32 -4 37 -33 17 -112 -9 -34 -26
-115 -38 -181 -12 -66 -24 -122 -25 -124 -5 -6 -179 21 -247 40 -82 22 -126
48 -161 93 -23 31 -26 44 -26 114 0 71 3 83 28 118 37 50 53 63 99 80 53 18
104 17 224 -6z"/>
<path d="M5712 2028 c-7 -7 -12 -29 -12 -50 0 -31 5 -41 25 -50 56 -25 105 35
71 87 -18 27 -63 34 -84 13z"/>
</g>
</svg>
